<?xml version="1.0" encoding="iso-8859-1"?>
<!-- Generator: Adobe Illustrator 18.0.0, SVG Export Plug-In . SVG Version: 6.00 Build 0)  -->
<!DOCTYPE svg PUBLIC "-//W3C//DTD SVG 1.1//EN" "http://www.w3.org/Graphics/SVG/1.1/DTD/svg11.dtd">
<svg version="1.1" id="Capa_1" xmlns="http://www.w3.org/2000/svg" xmlns:xlink="http://www.w3.org/1999/xlink" x="0px" y="0px"
	 viewBox="0 0 55.975 55.975" style="enable-background:new 0 0 55.975 55.975;" xml:space="preserve">
<g>
	<path style="fill:#B95150;" d="M54.36,2.487H32.975h-2h-17.72c-6.24,0-21.971,9.785-6.951,42.532L6.285,45.55
		c-0.017,0.519,0.41,0.939,0.928,0.909c3.061-0.176,12.536-1.414,15.04-9.972c0,0,19.354,1.293,21.91-15.572v0
		c5.174-3.341,10.181-8.539,11.779-16.505C56.142,3.417,55.372,2.487,54.36,2.487z"/>
	<path style="fill:#7F2E2B;" d="M30.254,26.487C11.359,29.842,7.188,38.431,6.364,43.189L6.285,45.55
		c-0.017,0.519,0.41,0.939,0.928,0.909c3.061-0.176,12.536-1.414,15.04-9.972c0,0,19.354,1.293,21.91-15.572
		C37.354,25.312,30.254,26.487,30.254,26.487z"/>
	<path style="fill:#B95150;" d="M54.36,2.487H32.975c0,8.271-6.729,15-15,15c-0.553,0-1-0.447-1-1s0.447-1,1-1
		c7.168,0,13-5.832,13-13h-17.72c-6.24,0-21.971,9.785-6.951,42.533l0.061-1.831c0.75-4.334,4.283-11.844,19.186-15.685
		c0.047-0.012,0.096-0.023,0.144-0.036c0.601-0.153,1.223-0.299,1.861-0.44c0.171-0.038,0.343-0.076,0.517-0.113
		c0.707-0.15,1.429-0.295,2.183-0.429c0,0,0.03-0.005,0.073-0.013c0.008-0.001,0.024-0.005,0.033-0.006
		c0.048-0.009,0.112-0.021,0.193-0.036c0.017-0.003,0.04-0.008,0.059-0.012c0.087-0.017,0.19-0.038,0.307-0.063
		c0.024-0.005,0.052-0.011,0.077-0.017c0.128-0.028,0.272-0.06,0.43-0.096c0.025-0.006,0.05-0.012,0.076-0.018
		c0.181-0.042,0.378-0.089,0.592-0.143c0.007-0.002,0.014-0.004,0.021-0.005c1.161-0.292,2.787-0.761,4.655-1.468l0.001,0
		c0.367-0.139,0.744-0.288,1.128-0.446c0.013-0.005,0.027-0.011,0.04-0.016c0.381-0.157,0.769-0.323,1.163-0.5
		c0.008-0.004,0.017-0.007,0.025-0.011c1.621-0.728,3.338-1.624,5.037-2.721v0c5.174-3.341,10.181-8.539,11.779-16.505
		C56.142,3.417,55.372,2.487,54.36,2.487z"/>
	<path style="fill:#F7B563;" d="M17.975,15.487c-0.553,0-1,0.447-1,1s0.447,1,1,1c8.271,0,15-6.729,15-15h-2
		C30.975,9.655,25.142,15.487,17.975,15.487z"/>
	<g>
		<path style="fill:#F7B563;" d="M26.975,30.487c-2.527,0-4.69,1.573-5.573,3.789c-0.883-0.491-2.071-0.789-3.427-0.789
			c-0.553,0-1,0.447-1,1s0.447,1,1,1c0.655,0,1.201,0.089,1.649,0.213c-3.304,0.614-5.649,2.497-5.649,4.787c0,0.553,0.447,1,1,1
			s1-0.447,1-1c0-1.281,2.01-2.689,5-2.952v14.952c0,0.553,0.447,1,1,1s1-0.447,1-1v-16c0-2.206,1.794-4,4-4c0.553,0,1-0.447,1-1
			C27.975,30.935,27.527,30.487,26.975,30.487z"/>
		<path style="fill:#F7B563;" d="M24.975,35.487c-0.553,0-1,0.447-1,1v16c0,0.553,0.447,1,1,1s1-0.447,1-1v-16
			C25.975,35.935,25.527,35.487,24.975,35.487z"/>
	</g>
</g>
<g>
</g>
<g>
</g>
<g>
</g>
<g>
</g>
<g>
</g>
<g>
</g>
<g>
</g>
<g>
</g>
<g>
</g>
<g>
</g>
<g>
</g>
<g>
</g>
<g>
</g>
<g>
</g>
<g>
</g>
</svg>
